<svg id="icon" fill="white" xmlns="http://www.w3.org/2000/svg" viewBox="0 0 34 34">
  <g id="Layer_1">
    <path class="cls-1" d="m17,0C7.6,0,0,7.6,0,17s7.6,17,17,17,17-7.6,17-17S26.4,0,17,0Zm11.5,11.5h-3.7c-.6-2.3-1.5-4.4-2.5-6.1,2.7,1.3,4.9,3.4,6.2,6.1Zm1.3,5.5c0,.4,0,.9-.1,1.3h-4.1c0-.9,0-1.8-.1-2.7h4.2c.1.6.1,1,.1,1.4Zm-17.3,1.4c0-.9,0-1.8.1-2.7h8.8c.1.9.1,1.8.1,2.7h-9Zm8.2,4.2c-.7,2.2-1.8,4.5-3.7,6.8-1.8-2.3-3-4.6-3.7-6.8h7.4Zm-16.5-5.6c0-.4,0-.9.1-1.3h4.2c-.1.9-.1,1.8-.1,2.7h-4.1c-.1-.5-.1-.9-.1-1.4Zm9.3-5.5c1-3.1,2.5-5.4,3.5-6.8,1,1.3,2.5,3.7,3.5,6.8h-7Zm-1.9-6.1c-.9,1.7-1.8,3.7-2.5,6.1h-3.7c1.3-2.7,3.5-4.8,6.2-6.1Zm-6.1,17.2h3.4c.5,1.9,1.2,3.9,2.4,5.9-2.5-1.3-4.6-3.4-5.8-5.9Zm17.2,5.9c1.2-2,1.9-4,2.4-5.9h3.5c-1.3,2.5-3.4,4.6-5.9,5.9Z"/>
  </g>
</svg>